<svg width="146" height="30" viewBox="0 0 146 30" fill="none" xmlns="http://www.w3.org/2000/svg">
<path d="M26.6996 10.7121L19.5091 9.6671L16.2947 3.1506C16.2069 2.97218 16.0625 2.82774 15.8841 2.73995C15.4366 2.51905 14.8929 2.70314 14.6691 3.1506L11.4548 9.6671L4.26426 10.7121C4.06602 10.7404 3.88477 10.8339 3.746 10.9755C3.57823 11.1479 3.48579 11.3799 3.48897 11.6205C3.49216 11.861 3.59072 12.0905 3.76299 12.2584L8.96543 17.3306L7.73633 24.4928C7.70751 24.6594 7.72594 24.8307 7.78955 24.9874C7.85315 25.1441 7.95938 25.2798 8.09619 25.3791C8.233 25.4785 8.39491 25.5375 8.56356 25.5496C8.73222 25.5616 8.90087 25.5261 9.05039 25.4472L15.4819 22.0657L21.9135 25.4472C22.0891 25.5406 22.293 25.5718 22.4884 25.5378C22.9812 25.4528 23.3125 24.9856 23.2275 24.4928L21.9984 17.3306L27.2009 12.2584C27.3425 12.1196 27.4359 11.9384 27.4643 11.7401C27.5407 11.2445 27.1952 10.7858 26.6996 10.7121Z" fill="#FFE600"/>
<path d="M55.6996 10.7121L48.5091 9.6671L45.2947 3.1506C45.2069 2.97218 45.0625 2.82774 44.8841 2.73995C44.4366 2.51905 43.8929 2.70314 43.6691 3.1506L40.4548 9.6671L33.2643 10.7121C33.066 10.7404 32.8848 10.8339 32.746 10.9755C32.5782 11.1479 32.4858 11.3799 32.489 11.6205C32.4922 11.861 32.5907 12.0905 32.763 12.2584L37.9654 17.3306L36.7363 24.4928C36.7075 24.6594 36.7259 24.8307 36.7895 24.9874C36.8532 25.1441 36.9594 25.2798 37.0962 25.3791C37.233 25.4785 37.3949 25.5375 37.5636 25.5496C37.7322 25.5616 37.9009 25.5261 38.0504 25.4472L44.4819 22.0657L50.9135 25.4472C51.0891 25.5406 51.293 25.5718 51.4884 25.5378C51.9812 25.4528 52.3125 24.9856 52.2275 24.4928L50.9984 17.3306L56.2009 12.2584C56.3425 12.1196 56.4359 11.9384 56.4643 11.7401C56.5407 11.2445 56.1952 10.7858 55.6996 10.7121Z" fill="#FFE600"/>
<path d="M84.6996 10.7121L77.5091 9.6671L74.2947 3.1506C74.2069 2.97218 74.0625 2.82774 73.8841 2.73995C73.4366 2.51905 72.8929 2.70314 72.6691 3.1506L69.4548 9.6671L62.2643 10.7121C62.066 10.7404 61.8848 10.8339 61.746 10.9755C61.5782 11.1479 61.4858 11.3799 61.489 11.6205C61.4922 11.861 61.5907 12.0905 61.763 12.2584L66.9654 17.3306L65.7363 24.4928C65.7075 24.6594 65.7259 24.8307 65.7895 24.9874C65.8532 25.1441 65.9594 25.2798 66.0962 25.3791C66.233 25.4785 66.3949 25.5375 66.5636 25.5496C66.7322 25.5616 66.9009 25.5261 67.0504 25.4472L73.4819 22.0657L79.9135 25.4472C80.0891 25.5406 80.293 25.5718 80.4884 25.5378C80.9812 25.4528 81.3125 24.9856 81.2275 24.4928L79.9984 17.3306L85.2009 12.2584C85.3425 12.1196 85.4359 11.9384 85.4643 11.7401C85.5407 11.2445 85.1952 10.7858 84.6996 10.7121Z" fill="#FFE600"/>
<path d="M113.7 10.7121L106.509 9.6671L103.295 3.1506C103.207 2.97218 103.063 2.82774 102.884 2.73995C102.437 2.51905 101.893 2.70314 101.669 3.1506L98.4548 9.6671L91.2643 10.7121C91.066 10.7404 90.8848 10.8339 90.746 10.9755C90.5782 11.1479 90.4858 11.3799 90.489 11.6205C90.4922 11.861 90.5907 12.0905 90.763 12.2584L95.9654 17.3306L94.7363 24.4928C94.7075 24.6594 94.7259 24.8307 94.7895 24.9874C94.8532 25.1441 94.9594 25.2798 95.0962 25.3791C95.233 25.4785 95.3949 25.5375 95.5636 25.5496C95.7322 25.5616 95.9009 25.5261 96.0504 25.4472L102.482 22.0657L108.913 25.4472C109.089 25.5406 109.293 25.5718 109.488 25.5378C109.981 25.4528 110.313 24.9856 110.228 24.4928L108.998 17.3306L114.201 12.2584C114.342 12.1196 114.436 11.9384 114.464 11.7401C114.541 11.2445 114.195 10.7858 113.7 10.7121Z" fill="#FFE600"/>
<path d="M142.7 10.7121L135.509 9.6671L132.295 3.1506C132.207 2.97218 132.063 2.82774 131.884 2.73995C131.437 2.51905 130.893 2.70314 130.669 3.1506L127.455 9.6671L120.264 10.7121C120.066 10.7404 119.885 10.8339 119.746 10.9755C119.578 11.1479 119.486 11.3799 119.489 11.6205C119.492 11.861 119.591 12.0905 119.763 12.2584L124.965 17.3306L123.736 24.4928C123.708 24.6594 123.726 24.8307 123.79 24.9874C123.853 25.1441 123.959 25.2798 124.096 25.3791C124.233 25.4785 124.395 25.5375 124.564 25.5496C124.732 25.5616 124.901 25.5261 125.05 25.4472L131.482 22.0657L137.913 25.4472C138.089 25.5406 138.293 25.5718 138.488 25.5378C138.981 25.4528 139.313 24.9856 139.228 24.4928L137.998 17.3306L143.201 12.2584C143.342 12.1196 143.436 11.9384 143.464 11.7401C143.541 11.2445 143.195 10.7858 142.7 10.7121Z" fill="#FFE600"/>
</svg>
